# xmcd CD database file
# Copyright (C) 1995-1998 Ti Kan
#
# Track frame offsets:
#	150
#	17527
#	32647
#	43962
#	62785
#	79560
#	93600
#	107565
#	124805
#	138435
#	153222
#	168895
#	187172
#
# Disc length: 2649 seconds
#
# Revision: 1
# Processed by: cddbd v1.4PL0 Copyright (c) Steve Scherf et al.
# Submitted via: CDex 1.30Release
#
DISCID=a60a570d
DTITLE=Devin Scillian - Tulsa
DYEAR=1999
DGENRE=Country
TTITLE0=I'll Be In Tulsa
TTITLE1=Gas Station Sunglasses
TTITLE2=The High Road To Taos
TTITLE3=Too Long In The Rain
TTITLE4=Across The Rio Grande
TTITLE5=Who Have I Got To Lose?
TTITLE6=Half Past You
TTITLE7=Midnight Calling
TTITLE8=An Extra Cup Of Coffee
TTITLE9=Nights With You
TTITLE10=He Bet The House
TTITLE11=We Don't Mind
TTITLE12=The Old Men Of The Church
EXTD=YEAR: 1999 ID3G:   2
EXTT0=
EXTT1=
EXTT2=
EXTT3=
EXTT4=
EXTT5=
EXTT6=
EXTT7=
EXTT8=
EXTT9=
EXTT10=
EXTT11=
EXTT12=
PLAYORDER=
